<?xml version="1.0" encoding="utf-8"?>
<!-- Generator: Adobe Illustrator 19.0.0, SVG Export Plug-In . SVG Version: 6.00 Build 0)  -->
<svg version="1.1" id="Layer_1" xmlns="http://www.w3.org/2000/svg" xmlns:xlink="http://www.w3.org/1999/xlink" x="0px" y="0px"
	 viewBox="-101 231.8 391.5 378.1" style="enable-background:new -101 231.8 391.5 378.1;" xml:space="preserve">
<style type="text/css">
	.st0{display:none;fill:#3D3D3D;}
	.st1{fill:#FFFFFF;}
	.st2{fill:#00ECFE;}
	.st3{fill:#FFE812;}
</style>
<rect x="-605.2" y="70.9" class="st0" width="1400" height="699.9"/>
<g>
	<g>
		<g>
			<g>
				
					<image style="overflow:visible;opacity:0.1;" width="411" height="295" xlink:href="279399.png"  transform="matrix(1 0 0 1 -110.5039 222.3861)">
				</image>
				<g>
					<g>
						<path class="st1" d="M102,507c-7.9-26-15.8-51.7-23.4-76.3c-5.9,10.7-10.8,22.7-18.5,32.7c-15.3,20-36.6,30.8-61.6,33.2
							c-38,3.6-65-19-72-58.9c-5.7-32.7,5.1-58.9,32.7-76.3c18.9-11.9,40.1-20.3,60.4-30c5.8-2.8,12-4.9,17.8-7.2
							c-0.4-13.9-6.8-22-19.9-21.2c-12.9,0.7-26.5,2.8-38.4,7.7c-17.6,7.2-34.1,17.3-51,26.4c-3.5,1.9-6.8,4.3-11,7
							c-6.1-18.4-12-36-18.1-54.1c24.2-17.9,50.1-31.5,78.8-39.8c22.2-6.4,44.6-8.5,67.6-4.4c23.9,4.2,41.5,16.7,52.7,38.2
							c1.2,2.3,2.4,4.5,4.4,8.2c1.9-5.4,3.4-9.6,4.7-13.8c3.2-10.1,6.8-20,9.3-30.3c1.6-6.9,5-9.8,12-10.6
							c19.3-2.3,38.5-7.5,58.5-5.2c37.9,4.3,65.2,24.2,82.4,57.7c13.1,25.5,20,53.1,21.1,81.7c1.9,46.7-29.3,88.2-77.7,103.3
							c-17.5,5.4-35.9,8.5-54.2,11.1C128.6,490.2,125.8,490.6,102,507z M149.1,445.2c13.2-4.4,25.5-8.2,37.7-12.5
							c17.3-6,28.3-18.2,34.1-35.5c10.9-32.9-1.3-76.8-27.8-99.2c-12.5-10.5-27-16.4-43.2-13.8c-15.2,2.5-30,7.3-46.1,11.4
							C119,346.2,134,395.4,149.1,445.2z M85.7,345.4c-25.1,12.5-50.5,25.1-75.9,37.8c-9.2,4.6-17,10.9-21.5,20.4
							c-4.9,10.5-4.7,21,2.8,30.4c7.4,9.3,17.7,13.2,28.8,9.7c8.4-2.7,17.1-7,23.4-13C68.1,407.1,77.3,375.6,85.7,345.4z"/>
					</g>
				</g>
			</g>
			<g>
				
					<image style="overflow:visible;opacity:0.25;enable-background:new    ;" width="588" height="758" xlink:href="27939B.png"  transform="matrix(0.2388 0 0 0.2397 99.7658 278.0036)">
				</image>
				<g>
					<path class="st2" d="M210.5,417.9c-5.2,5.9-16.9,13.7-24,16.2c-10.8,3.7-21.8,7-32.6,10.7c-3.5,1.2-5,1.2-6.3-2.8
						c-14.8-47.6-29.7-95.2-43.3-143.2c-0.8-2.8-0.9-4.3,2.5-5.2c11.3-3.1,22.3-7.1,33.6-9.7c24.4-5.7,45.2,1.6,61,20.5
						c23.3,27.9,30.7,59.7,20,95c-2.2,7.2-5.8,13.9-11.5,19.1C207.6,419.1,211.1,415.7,210.5,417.9z"/>
				</g>
			</g>
		</g>
		<g>
			
				<image style="overflow:visible;opacity:0.25;enable-background:new    ;" width="508" height="517" xlink:href="27939E.png"  transform="matrix(0.2391 0 0 0.2386 -20.7256 337.2119)">
			</image>
			<g>
				<path class="st3" d="M46.5,429.1c-6.6,7.8-14,12.8-23.9,15.7c-13.7,4.1-26.8-0.3-34.6-11.6c-7-10.2-6.1-24.6,2.3-35.5
					c4.7-6.1,10.4-11.2,17.3-14.3c27-12.2,54-24.5,79.1-42.2c0,7.2-2.5,12.7-4.1,18.4c-5.9,19.9-13.5,39.1-25.2,56.4
					c-1.6,2.4-8.4,10.1-10.2,12.4C44.4,431.4,46.6,426,46.5,429.1z"/>
			</g>
		</g>
	</g>
	<g>
		
			<image style="overflow:visible;opacity:0.1;" width="367" height="101" xlink:href="27939F.png"  transform="matrix(1 0 0 1 -75.5039 519.386)">
		</image>
		<g>
			<g>
				<g>
					<path class="st1" d="M-6.8,542.9v-14.4H8.6v14.4H-6.8z M-6.8,608.3v-58.4H8.6v58.4H-6.8z"/>
					<path class="st1" d="M15.6,608.3v-58.4h14.5v7c1.3-2,2.6-3.5,4-4.6c1.4-1.1,2.8-2,4.3-2.6c1.5-0.6,2.9-1,4.5-1.1
						c1.5-0.2,3-0.2,4.6-0.2h2v15.8c-1.6-0.3-3.3-0.4-4.9-0.3c-7.6,0.2-13.5,6.6-13.5,14.1v30.4L15.6,608.3L15.6,608.3z"/>
					<path class="st1" d="M90.7,608.3l-0.1-7.1c-3.6,5.8-9,8.7-16.3,8.7c-3.7,0-7.1-0.7-10.2-2.1c-3.1-1.4-5.7-3.5-8-6.2
						c-2.2-2.7-4-6-5.2-9.9c-1.3-3.9-1.9-8.3-1.9-13.2c0-4.4,0.5-8.5,1.6-12.2s2.6-6.9,4.7-9.6c2.1-2.7,4.6-4.8,7.5-6.2
						c3-1.5,6.4-2.2,10.2-2.2c7.2,0,13,3,17.3,9.1v-29h15.2v79.8H90.7V608.3z M77.8,597.3c3.7,0,6.8-1.5,9.3-4.6
						c2.5-3.1,3.7-7.1,3.7-12.1c0-12.7-4.3-19-12.9-19c-8.9,0-13.3,6-13.3,18c0,5.2,1.2,9.5,3.7,12.8
						C70.8,595.6,74,597.3,77.8,597.3z"/>
					<path class="st1" d="M126.4,583.1c0.2,4.4,1.5,8,3.9,10.6c2.3,2.6,5.4,3.9,9.2,3.9c2.5,0,4.8-0.6,6.7-1.7
						c1.9-1.1,3.2-2.7,3.7-4.8l0,0h15.9c-1.8,6-5,10.6-9.5,13.9c-4.5,3.2-9.9,4.9-16.1,4.9c-19.5,0-29.2-10.6-29.2-31.8
						c0-4.5,0.6-8.6,1.9-12.2c1.3-3.6,3.1-6.8,5.5-9.4c2.4-2.6,5.4-4.6,8.8-6c3.5-1.4,7.5-2.1,12-2.1c9,0,15.9,2.9,20.5,8.7
						c4.6,5.8,6.9,14.5,6.9,26.1L126.4,583.1z M150.7,573.4c-0.1-2.1-0.5-4-1.1-5.6c-0.7-1.6-1.6-3-2.7-4c-1.1-1.1-2.4-1.9-3.8-2.4
						c-1.4-0.5-2.9-0.8-4.4-0.8c-3.1,0-5.8,1.1-8,3.4c-2.3,2.3-3.5,5.4-3.9,9.4H150.7z"/>
					<path class="st1" d="M207.1,567.6c-0.4-2.8-1.4-4.8-3.1-6c-1.7-1.1-4.3-1.7-7.8-1.7c-2.9,0-5.2,0.4-6.8,1.1
						c-1.6,0.8-2.4,2-2.4,3.7s0.8,3.1,2.4,4c1.6,0.9,4,1.8,7.1,2.7c3.3,1,6.5,1.8,9.5,2.6c3,0.8,5.7,1.6,8,2.4
						c3.1,1.3,5.5,3,7.1,5.2c1.7,2.2,2.5,5.2,2.5,9c0,6.1-2.2,10.8-6.5,14.2s-10.7,5.1-19.1,5.1c-9,0-15.9-1.9-20.7-5.7
						c-4.8-3.8-7.3-8.7-7.4-14.6h15.9c0,2.8,1.1,4.9,3.2,6.4s5.1,2.3,8.9,2.3c2.8,0,5.2-0.5,7.2-1.4c2.1-0.9,3.1-2.5,3.1-4.8
						c0-1.9-1.3-3.6-3-4.4c-1.8-0.8-3.9-1.5-6.4-2.1c-4.9-1.2-8.9-2.3-11.9-3.2c-3-1-5.5-2.1-7.6-3.4c-2.8-1.7-4.7-3.7-5.8-5.9
						c-1.1-2.2-1.6-4.6-1.6-7.2c0-2.5,0.4-4.7,1.3-6.9c0.9-2.1,2.3-4,4.3-5.5s4.5-2.7,7.7-3.6c3.1-0.9,6.9-1.3,11.3-1.3
						c8.5,0,14.7,1.6,18.7,4.9c4,3.2,6.2,8,6.6,14.4L207.1,567.6z"/>
					<path class="st1" d="M263.9,608.3l-12.8-26.2l-7.5,7.7v18.5H228v-79.8h15.6v43.6l19.2-22.2h18.9l-19.6,21.5l19.1,36.9
						L263.9,608.3L263.9,608.3z"/>
				</g>
				<path class="st1" d="M-28.3,608.3c-0.5-1.5-0.8-3.2-0.9-5.2l0,0c-1.8,2.1-4.2,3.7-7.2,4.9c-3,1.2-6.5,1.8-10.4,1.8
					c-6.7,0-11.7-1.5-14.8-4.5s-4.7-6.8-4.7-11.6c0-4.2,0.7-7.5,2-10c1.3-2.5,3.2-4.5,5.6-5.9c2.4-1.4,5.2-2.5,8.5-3.1
					c3.3-0.7,6.9-1.3,10.7-1.8c3.9-0.6,6.5-1.3,7.8-2.2c1.3-0.9,2-2.4,2-4.5c0-1.9-0.9-3.4-2.7-4.5c-1.8-1.1-4.2-1.6-7.2-1.6
					c-3.6,0-6.1,0.8-7.7,2.4c-1.5,1.6-2.5,3.7-2.9,6.3h-14.3c0.1-3,0.6-5.8,1.5-8.3s2.4-4.7,4.4-6.5s4.6-3.2,7.9-4.2
					c3.2-1,7.2-1.5,11.9-1.5c4.6,0,8.5,0.5,11.7,1.5s5.8,2.5,7.7,4.5c1.9,1.9,3.3,4.4,4.2,7.2c0.9,2.9,1.3,6.2,1.3,9.8v36.9h-14.4
					V608.3z M-29.4,579.7c-0.8,0.8-1.9,1.4-3.4,1.9s-3.7,1-6.5,1.5c-4.4,0.9-7.5,2-9.1,3.3c-1.7,1.3-2.5,3.3-2.5,5.8
					c0,4.4,2.5,6.5,7.5,6.5c2,0,3.8-0.3,5.5-1c1.7-0.7,3.2-1.6,4.4-2.7c1.2-1.1,2.2-2.5,3-4s1.1-3.2,1.1-4.9V579.7z"/>
			</g>
		</g>
	</g>
</g>
</svg>
